# xmcd
#
# Track frame offsets: 
#        150
#        20779
#        33092
#        51871
#        70285
#        86293
#
# Disc length: 1342 seconds
#
# Revision: 0
# Processed by: cddbd v1.5.2PL0 Copyright (c) Steve Scherf et al.
# Submitted via: ExactAudioCopyFreeDBPlugin 1.0
#
DISCID=45053c06
DTITLE=Boz Scaggs - Memphis (Deluxe Version)
DYEAR=2013
DGENRE=Rhythm and Blues
TTITLE0=Cadillac Walk (demo)
TTITLE1=I Ain't Got You (demo)
TTITLE2=Dry Spell (demo)
TTITLE3=Educated Fool (demo)
TTITLE4=Mixed Up, Shook Up Girl (demo)
TTITLE5=It Takes a Lot to Laugh (demo)
EXTD=
EXTT0=
EXTT1=
EXTT2=
EXTT3=
EXTT4=
EXTT5=
PLAYORDER=
